<svg width="34" height="35" viewBox="0 0 34 35" fill="none" xmlns="http://www.w3.org/2000/svg">
<path d="M14.54 29.08C17.766 29.0794 20.8991 27.9994 23.4403 26.0121L31.43 34.0018L34 31.4319L26.0103 23.4421C27.9986 20.9007 29.0792 17.7669 29.08 14.54C29.08 6.52301 22.557 0 14.54 0C6.52301 0 0 6.52301 0 14.54C0 22.557 6.52301 29.08 14.54 29.08ZM14.54 3.635C20.5541 3.635 25.445 8.5259 25.445 14.54C25.445 20.5541 20.5541 25.445 14.54 25.445C8.5259 25.445 3.635 20.5541 3.635 14.54C3.635 8.5259 8.5259 3.635 14.54 3.635Z" fill="black"/>
<path d="M17.1063 11.9701C17.7952 12.6608 18.175 13.5731 18.175 14.5401H21.81C21.8117 13.5848 21.6239 12.6388 21.2577 11.7565C20.8914 10.8743 20.3539 10.0734 19.6763 9.40016C16.9246 6.6521 12.1537 6.6521 9.40378 9.40016L11.9701 11.9737C13.3514 10.5961 15.7323 10.5997 17.1063 11.9701Z" fill="black"/>
</svg>
